<svg xmlns="http://www.w3.org/2000/svg" version="1.1" xmlns:xlink="http://www.w3.org/1999/xlink" xmlns:svgjs="http://svgjs.dev/svgjs" width="100%" height="100%" viewBox="0 0 1000 600"><rect width="1000" height="600" x="0" y="0" fill="#262223"/><g><rect width="333.3333333333333" height="333.3333333333333" rx="13.333333333333334" ry="13.333333333333334" y="291.7972372630089" fill="#ddc6b6" transform="matrix(0.4636928288590825,0,0,0.46369282885908236,0,87.41357635930022)" x="269.57501220703125"/><path d="M368.7431301138694 533.463901487547L315.6514458359308 533.463901487547L315.6514458359308 383.4639019312024L363.5095577315973 383.4639019312024Q377.320373740371 383.4639019312024 387.3223120709356 386.19698973083337Q397.2951749993764 388.9010021283407 403.74991427084535 393.93104669574666Q410.1755781401906 398.9610912631527 413.25757076530647 406.22994179408624Q416.368638792546 413.49879232501974 416.368638792546 422.6284685918723L416.368638792546 422.6284685918723Q416.368638792546 428.1527949953818 414.62411466512197 433.2991411712827Q412.9086659398216 438.41641194505996 409.3905422828498 442.8067976657438Q405.9014940280017 447.2262587885514 400.60977084148203 450.657156239152Q395.31804765496247 454.1171290918764 388.1945741346476 456.32685965328017L388.1945741346476 456.32685965328017Q404.62217633455737 459.5542292890147 412.99589214619283 468.16054831764Q421.3696079578283 476.7377919441415 421.3696079578283 490.75213576778145L421.3696079578283 490.75213576778145Q421.3696079578283 500.28886766436625 417.8805597029802 508.1392262377745Q414.3624360460083 515.9895848111828 407.616942753302 521.6302128231871Q400.87144946059567 527.2999162373153 391.07303894489723 530.3819088624311Q381.3037038313226 533.463901487547 368.7431301138694 533.463901487547L368.7431301138694 533.463901487547ZM368.3069990820134 465.1076310946479L335.975151920421 465.1076310946479L335.975151920421 517.3561287109983L368.4233006905083 517.3561287109983Q377.1168459255049 517.3561287109983 383.33898197998394 515.3499259644605Q389.5611180344631 513.3727986200466 393.6025989296621 509.7674487567036Q397.61500442273746 506.1330234912368 399.5049055607802 501.16112972807827Q401.3948066988229 496.18923596491976 401.3948066988229 490.22877852955423L401.3948066988229 490.22877852955423Q401.3948066988229 478.6276930821843 393.1664678978061 471.8531243873542Q384.9672044989131 465.1076310946479 368.3069990820134 465.1076310946479L368.3069990820134 465.1076310946479ZM335.975151920421 399.4844485013799L335.975151920421 450.657156239152L362.7535972763802 450.657156239152Q371.3599163050055 450.657156239152 377.64020316373205 448.79633050323304Q383.92049002245864 446.9064293651903 388.04919712402886 443.5627581209609Q392.17790422559915 440.19001147460773 394.1550315700131 435.45072092843907Q396.16123431655075 430.68235498014667 396.16123431655075 425.0126515660185L396.16123431655075 425.0126515660185Q396.16123431655075 411.8414944039669 388.1945741346476 405.6484337516115Q380.25698935486815 399.4844485013799 363.5095577315973 399.4844485013799L363.5095577315973 399.4844485013799L335.975151920421 399.4844485013799ZM504.1763532062232 533.463901487547L451.11374433040834 533.463901487547L451.11374433040834 383.4639019312024L498.942780823951 383.4639019312024Q512.7535968327247 383.4639019312024 522.7555351632893 386.19698973083337Q532.7574734938539 388.9010021283407 539.1831373631992 393.93104669574666Q545.6378766346681 398.9610912631527 548.719869259784 406.22994179408624Q551.8018618848998 413.49879232501974 551.8018618848998 422.6284685918723L551.8018618848998 422.6284685918723Q551.8018618848998 428.1527949953818 550.0864131595995 433.2991411712827Q548.3418890321755 438.41641194505996 544.8528407773273 442.8067976657438Q541.3347171203554 447.2262587885514 536.0429939338359 450.657156239152Q530.7512707473162 454.1171290918764 523.656872629125 456.32685965328017L523.656872629125 456.32685965328017Q540.0844748290349 459.5542292890147 548.4581906406704 468.16054831764Q556.8319064523057 476.7377919441415 556.8319064523057 490.75213576778145L556.8319064523057 490.75213576778145Q556.8319064523057 500.28886766436625 553.313782795334 508.1392262377745Q549.8247345404858 515.9895848111828 543.0501658456558 521.6302128231871Q536.3046725529495 527.2999162373153 526.5353374393748 530.3819088624311Q516.7369269236764 533.463901487547 504.1763532062232 533.463901487547L504.1763532062232 533.463901487547ZM503.7692975764909 465.1076310946479L471.4083750127748 465.1076310946479L471.4083750127748 517.3561287109983L503.8565237828621 517.3561287109983Q512.5500690178586 517.3561287109983 518.7722050723378 515.3499259644605Q524.9943411268168 513.3727986200466 529.035822022016 509.7674487567036Q533.077302917215 506.1330234912368 534.938128653134 501.16112972807827Q536.8280297911767 496.18923596491976 536.8280297911767 490.22877852955423L536.8280297911767 490.22877852955423Q536.8280297911767 478.6276930821843 528.6287663922836 471.8531243873542Q520.4004275912669 465.1076310946479 503.7692975764909 465.1076310946479L503.7692975764909 465.1076310946479ZM471.4083750127748 399.4844485013799L471.4083750127748 450.657156239152L498.2158957708577 450.657156239152Q506.79313939735925 450.657156239152 513.0734262560859 448.79633050323304Q519.3537131148124 446.9064293651903 523.4824202163827 443.5627581209609Q527.6111273179529 440.19001147460773 529.6173300644906 435.45072092843907Q531.5944574089045 430.68235498014667 531.5944574089045 425.0126515660185L531.5944574089045 425.0126515660185Q531.5944574089045 411.8414944039669 523.656872629125 405.6484337516115Q515.6902124472219 399.4844485013799 498.942780823951 399.4844485013799L498.942780823951 399.4844485013799L471.4083750127748 399.4844485013799Z " fill="#262223" transform="matrix(0.4636928288590825,0,0,0.46369282885908236,0,87.41357635930022)"/><path d="M697.8253387133184 531.8410686361799L686.2416790802295 531.8410686361799L686.2416790802295 383.4639018867347L704.2886850303316 383.4639018867347L704.2886850303316 444.51594372103403Q710.612132076414 437.1572420700621 718.8382092071583 432.6804654002693Q727.0363064837163 428.20368873047653 737.6126913661019 428.20368873047653L737.6126913661019 428.20368873047653Q746.4823051431289 428.20368873047653 753.6451478147974 431.5053115244487Q760.7800106322798 434.8349141726071 765.8163843857965 441.4381597605515Q770.8527581393134 448.04140534849586 773.5668039953754 457.7504147511091Q776.3088297056235 467.4874040079084 776.3088297056235 480.1622779542593L776.3088297056235 480.1622779542593Q776.3088297056235 491.4381591912999 773.2870054535133 501.17514844809926Q770.2651812014032 510.8841578507124 764.5572909474174 517.9910408140086Q758.8773805476178 525.0979237773047 750.6513034168734 529.1829824884906Q742.4532061403154 533.2400613454902 732.1845996539781 533.2400613454902L732.1845996539781 533.2400613454902Q722.3077111262478 533.2400613454902 715.3966871422551 529.4348011761663Q708.5136430124487 525.6015611526564 703.3653498421869 518.746496877036L703.3653498421869 518.746496877036L702.4699945082284 528.00782861267Q701.6585787368284 531.8410686361799 697.8253387133184 531.8410686361799L697.8253387133184 531.8410686361799ZM731.7649018411851 442.5013942196273L731.7649018411851 442.5013942196273Q723.0072074809029 442.5013942196273 716.4039618929585 446.53049322244084Q709.8286961592003 450.55959222525433 704.2886850303316 457.91829387622624L704.2886850303316 457.91829387622624L704.2886850303316 507.27475666069193Q709.1012199503589 513.9059821028226 715.0049691836482 516.6200279588845Q720.9087184169375 519.3620536691326 728.1555006511646 519.3620536691326L728.1555006511646 519.3620536691326Q742.4532061403154 519.3620536691326 750.1196861873356 509.1773867453539Q757.7581863801695 498.9927198215753 757.7581863801695 480.1622779542593L757.7581863801695 480.1622779542593Q757.7581863801695 470.20144986397025 755.9954555664385 463.0386071923018Q754.2327247527077 455.9037443748195 750.9031221045493 451.3150482882819Q747.6014993105771 446.72635220174425 742.7609845363636 444.59988328359265Q737.9204697621501 442.5013942196273 731.7649018411851 442.5013942196273ZM795.8387679275945 429.7985404190902L813.773854460952 429.7985404190902L813.773854460952 494.8796812562031Q813.773854460952 506.463340889292 819.1180066105171 512.8147677895606Q824.4341789058963 519.1382148356429 835.2344026217713 519.1382148356429L835.2344026217713 519.1382148356429Q843.0687617939086 519.1382148356429 850.0357454862738 515.4168942288777Q856.9747493244527 511.69557362211236 862.8225388493695 505.03636832579554L862.8225388493695 505.03636832579554L862.8225388493695 429.7985404190902L880.7576253827269 429.7985404190902L880.7576253827269 531.8410686361799L870.0693210835966 531.8410686361799Q866.2360810600865 531.8410686361799 865.2288063093831 528.1197480294147L865.2288063093831 528.1197480294147L863.8298136000728 517.1236653342362Q857.1706083037561 524.482366985208 848.9165513188257 528.9591436550008Q840.662494333895 533.4639001789799 829.9741900347647 533.4639001789799L829.9741900347647 533.4639001789799Q821.6361934872757 533.4639001789799 815.2288068786347 530.6938946145456Q808.8214202699937 527.9238890501113 804.5125227253181 522.8875152965943Q800.1756453264563 517.8511415430775 797.9932166999324 510.68829887140896Q795.8387679275945 503.5254561997405 795.8387679275945 494.8796812562031L795.8387679275945 494.8796812562031L795.8387679275945 429.7985404190902ZM912.29092105058 383.4639018867347L930.1980277297512 383.4639018867347L930.1980277297512 531.8410686361799L912.29092105058 531.8410686361799L912.29092105058 383.4639018867347ZM963.8577923157559 383.4639018867347L981.7928788491133 383.4639018867347L981.7928788491133 531.8410686361799L963.8577923157559 531.8410686361799L963.8577923157559 383.4639018867347ZM1053.813023524405 428.20368873047653L1053.813023524405 428.20368873047653Q1062.9624358432943 428.20368873047653 1070.7128554528729 431.25349283677286Q1078.491254916638 434.33127679725544 1084.1152056080653 440.12310661379985Q1089.7671361536786 445.9149364303443 1092.9288596767199 454.4208121029506Q1096.1185630539471 462.9546676297432 1096.1185630539471 473.81085105399075L1096.1185630539471 473.81085105399075Q1096.1185630539471 478.0637888902939 1095.1952278658023 479.46278159960417Q1094.299872531844 480.8617743089144 1091.7816856550853 480.8617743089144L1091.7816856550853 480.8617743089144L1023.8745795451657 480.8617743089144Q1024.0984183786554 490.54280385734137 1026.504685838669 497.7056465290098Q1028.9109532986827 504.8405093464921 1033.1638911349858 509.6250644123332Q1037.3888491171028 514.4096194781741 1043.2366386420197 516.7879070840017Q1049.0564483127503 519.1382148356429 1056.3312104011636 519.1382148356429L1056.3312104011636 519.1382148356429Q1063.074355260039 519.1382148356429 1067.9428498884386 517.5993228554016Q1072.8393243710245 516.0324510209741 1076.3647859984865 514.2137604988709Q1079.8902476259482 512.3950699767674 1082.2685352317756 510.82819814234Q1084.618842983417 509.28930616209874 1086.3256140887754 509.28930616209874L1086.3256140887754 509.28930616209874Q1088.5640024236718 509.28930616209874 1089.7671361536786 510.9960772674572L1089.7671361536786 510.9960772674572L1094.8035099071956 517.5433631470291Q1091.473907259037 521.5724621498427 1086.829251464127 524.5383266935805Q1082.2125755234033 527.5041912373182 1076.9243830822104 529.4348011761663Q1071.6361906410177 531.3374312608282 1065.9842600954044 532.2887463031593Q1060.360309403977 533.2400613454902 1054.8202982751084 533.2400613454902L1054.8202982751084 533.2400613454902Q1044.243913392723 533.2400613454902 1035.3183399073237 529.6866198638422Q1026.392766421924 526.105198528008 1019.9014402507246 519.1941745440154Q1013.4101140795251 512.311130414209 1009.7727330353184 502.12646349043024Q1006.163331845298 491.9417965666516 1006.163331845298 478.76328524494903L1006.163331845298 478.76328524494903Q1006.163331845298 468.0749809458187 1009.436974785084 458.81364921018485Q1012.71061772487 449.552317474551 1018.8382057916488 442.7532129073031Q1024.993773712614 435.9541083400553 1033.863387489641 432.0649086081728Q1042.733001266668 428.20368873047653 1053.813023524405 428.20368873047653ZM1054.204741483012 441.3822000521791L1054.204741483012 441.3822000521791Q1041.2220891406128 441.3822000521791 1033.7514680728962 448.88080097408204Q1026.3088268593656 456.40738175017117 1024.4901363372621 469.6978124886186L1024.4901363372621 469.6978124886186L1080.002167042693 469.6978124886186Q1080.002167042693 463.45830500509487 1078.2674160831484 458.25405212646075Q1076.56064497779 453.0777791020128 1073.2310423296315 449.30049878687515Q1069.9294195356592 445.52321847173744 1065.144864469818 443.45270926195826Q1060.360309403977 441.3822000521791 1054.204741483012 441.3822000521791ZM1149.8958427998332 533.4639001789799L1149.8958427998332 533.4639001789799Q1137.8085457913928 533.4639001789799 1131.317219620193 526.6927754659182Q1124.8258934489936 519.9496306070428 1124.8258934489936 507.27475666069193L1124.8258934489936 507.27475666069193L1124.8258934489936 444.8237221170823L1112.5147576070633 444.8237221170823Q1110.9199059184496 444.8237221170823 1109.8007117510015 443.84442722056514Q1108.7094974377394 442.89311217823416 1108.7094974377394 440.8785626768274L1108.7094974377394 440.8785626768274L1108.7094974377394 433.7436998593451L1125.4134703869038 431.61723094119355L1129.5544888064621 400.08393527334044Q1129.7503477857656 398.57302314728537 1130.869541953214 397.6217081049544Q1131.9607562664758 396.6703930626234 1133.6675273718342 396.6703930626234L1133.6675273718342 396.6703930626234L1142.7330001281648 396.6703930626234L1142.7330001281648 431.81308992049696L1171.9439678985627 431.81308992049696L1171.9439678985627 444.8237221170823L1142.7330001281648 444.8237221170823L1142.7330001281648 506.04364307649894Q1142.7330001281648 512.5069893935124 1145.8667437970198 515.6127532081811Q1149.0004874658748 518.746496877036 1153.9249418026468 518.746496877036L1153.9249418026468 518.746496877036Q1156.7509070754534 518.746496877036 1158.8214162852328 517.9910408140086Q1160.8639456408255 517.2355847509809 1162.3748577668807 516.3402294170223Q1163.8857698929357 515.4168942288777 1164.9490043520116 514.6614381658501Q1166.0122388110874 513.9059821028226 1166.8236545824873 513.9059821028226L1166.8236545824873 513.9059821028226Q1168.2226472917976 513.9059821028226 1169.3418414592456 515.6127532081811L1169.3418414592456 515.6127532081811L1174.574074192066 524.1745885891598Q1169.929418397156 528.5114659880217 1163.382132517584 530.9736931564076Q1156.834846638012 533.4639001789799 1149.8958427998332 533.4639001789799ZM1196.118561915444 429.7985404190902L1214.0536484488014 429.7985404190902L1214.0536484488014 531.8410686361799L1196.118561915444 531.8410686361799L1196.118561915444 429.7985404190902ZM1218.082747451615 397.76160737588543L1218.082747451615 397.76160737588543Q1218.082747451615 400.3917136693887 1217.0195129925391 402.6580818584713Q1215.9842583876496 404.92445004755393 1214.2215275739186 406.68718086128484Q1212.4587967601876 408.44991167501576 1210.1364688627327 409.4571864257191Q1207.8141409652776 410.4644611764225 1205.1840346717743 410.4644611764225L1205.1840346717743 410.4644611764225Q1202.5819082324574 410.4644611764225 1200.3155400433745 409.4571864257191Q1198.049171854292 408.44991167501576 1196.2864410405612 406.68718086128484Q1194.5237102268302 404.92445004755393 1193.5164354761268 402.6580818584713Q1192.5091607254235 400.3917136693887 1192.5091607254235 397.76160737588543L1192.5091607254235 397.76160737588543Q1192.5091607254235 395.15948093656834 1193.5164354761268 392.78119333074096Q1194.5237102268302 390.4308855790997 1196.2864410405612 388.6681547653688Q1198.049171854292 386.9054239516379 1200.3155400433745 385.89814920093454Q1202.5819082324574 384.8908744502311 1205.1840346717743 384.8908744502311L1205.1840346717743 384.8908744502311Q1207.8141409652776 384.8908744502311 1210.1364688627327 385.89814920093454Q1212.4587967601876 386.9054239516379 1214.2215275739186 388.6681547653688Q1215.9842583876496 390.4308855790997 1217.0195129925391 392.78119333074096Q1218.082747451615 395.15948093656834 1218.082747451615 397.76160737588543ZM1263.6059702125706 531.8410686361799L1245.6988635333992 531.8410686361799L1245.6988635333992 429.7985404190902L1256.3591879783435 429.7985404190902Q1260.1924280018534 429.7985404190902 1261.199702752557 433.5198610258555L1261.199702752557 433.5198610258555L1262.5986954618672 444.59988328359265Q1269.257900758184 437.269161486807 1277.455998034742 432.73642510864175Q1285.6820751654864 428.20368873047653 1296.4543190271752 428.20368873047653L1296.4543190271752 428.20368873047653Q1304.8202954288506 428.20368873047653 1311.1997021833054 430.97369429491084Q1317.6070887919464 433.7436998593451 1321.8880064824357 438.80805346704824Q1326.168924172925 443.90038692893756 1328.3793326536352 451.063229600606Q1330.5897411343453 458.1980924180883 1330.5897411343453 466.8718472158119L1330.5897411343453 466.8718472158119L1330.5897411343453 531.8410686361799L1312.6826344551741 531.8410686361799L1312.6826344551741 466.8718472158119Q1312.6826344551741 455.28818758272297 1307.3944420139815 448.88080097408204Q1302.1062495727888 442.5013942196273 1291.2220862943548 442.5013942196273L1291.2220862943548 442.5013942196273Q1283.2478278512865 442.5013942196273 1276.36478372148 446.3346342431374Q1269.4537597374874 450.1398944124613 1263.6059702125706 456.68718029203325L1263.6059702125706 456.68718029203325L1263.6059702125706 531.8410686361799ZM1408.7654537306023 531.8410686361799L1397.1817940975134 531.8410686361799L1397.1817940975134 383.4639018867347L1415.2008201934295 383.4639018867347L1415.2008201934295 444.51594372103403Q1421.552247093698 437.1572420700621 1429.7783242244423 432.6804654002693Q1437.9764215010005 428.20368873047653 1448.5528063833858 428.20368873047653L1448.5528063833858 428.20368873047653Q1457.422420160413 428.20368873047653 1464.5572829778953 431.5053115244487Q1471.7201256495637 434.8349141726071 1476.7564994030806 441.4381597605515Q1481.7928731565976 448.04140534849586 1484.5069190126592 457.7504147511091Q1487.2209648687212 467.4874040079084 1487.2209648687212 480.1622779542593L1487.2209648687212 480.1622779542593Q1487.2209648687212 491.4381591912999 1484.1991406166112 501.17514844809926Q1481.177316364501 510.8841578507124 1475.4974059647016 517.9910408140086Q1469.8174955649017 525.0979237773047 1461.5914184341573 529.1829824884906Q1453.3933211575993 533.2400613454902 1443.1247146712622 533.2400613454902L1443.1247146712622 533.2400613454902Q1433.2478261435317 533.2400613454902 1426.336802159539 529.4348011761663Q1419.4537580297326 525.6015611526564 1414.305464859471 518.746496877036L1414.305464859471 518.746496877036L1413.4101095255123 528.00782861267Q1412.5986937541124 531.8410686361799 1408.7654537306023 531.8410686361799L1408.7654537306023 531.8410686361799ZM1442.705016858469 442.5013942196273L1442.705016858469 442.5013942196273Q1433.9473224981868 442.5013942196273 1427.3440769102424 446.53049322244084Q1420.7408313222982 450.55959222525433 1415.2008201934295 457.91829387622624L1415.2008201934295 457.91829387622624L1415.2008201934295 507.27475666069193Q1420.0413349676428 513.9059821028226 1425.9450842009321 516.6200279588845Q1431.8208535800354 519.3620536691326 1439.0956156684488 519.3620536691326L1439.0956156684488 519.3620536691326Q1453.3933211575993 519.3620536691326 1461.0318213504333 509.1773867453539Q1468.6983013974536 498.9927198215753 1468.6983013974536 480.1622779542593L1468.6983013974536 480.1622779542593Q1468.6983013974536 470.20144986397025 1466.9355705837227 463.0386071923018Q1465.1728397699917 455.9037443748195 1461.8432371218332 451.3150482882819Q1458.513634473675 446.72635220174425 1453.7010995536475 444.59988328359265Q1448.860584779434 442.5013942196273 1442.705016858469 442.5013942196273ZM1550.4834151837308 428.20368873047653L1550.4834151837308 428.20368873047653Q1561.675356858213 428.20368873047653 1570.684869906171 431.92500933724176Q1579.694382954129 435.64632994400705 1585.9898501460252 442.5013942196273Q1592.2853173379212 449.3564584952475 1595.670879694452 459.0654678978607Q1599.0284621967967 468.77447730047385 1599.0284621967967 480.7778347463558L1599.0284621967967 480.7778347463558Q1599.0284621967967 492.8651317547964 1595.670879694452 502.51818144903706Q1592.2853173379212 512.199210997464 1585.9898501460252 519.0542752730844Q1579.694382954129 525.9093395487046 1570.684869906171 529.5747004470974Q1561.675356858213 533.2400613454902 1550.4834151837308 533.2400613454902L1550.4834151837308 533.2400613454902Q1539.319453363435 533.2400613454902 1530.281960461291 529.5747004470974Q1521.2724474133329 525.9093395487046 1514.9210205130644 519.0542752730844Q1508.5975734669819 512.199210997464 1505.1560514020784 502.51818144903706Q1501.7425091913617 492.8651317547964 1501.7425091913617 480.7778347463558L1501.7425091913617 480.7778347463558Q1501.7425091913617 468.77447730047385 1505.1560514020784 459.0654678978607Q1508.5975734669819 449.3564584952475 1514.9210205130644 442.5013942196273Q1521.2724474133329 435.64632994400705 1530.281960461291 431.92500933724176Q1539.319453363435 428.20368873047653 1550.4834151837308 428.20368873047653ZM1550.4834151837308 519.2501342523876L1550.4834151837308 519.2501342523876Q1565.5925364442814 519.2501342523876 1573.0631575119983 509.1214270369815Q1580.5057987255288 498.9927198215753 1580.5057987255288 480.8617743089144L1580.5057987255288 480.8617743089144Q1580.5057987255288 462.64688923369494 1573.0631575119983 452.4622223099163Q1565.5925364442814 442.3055352403239 1550.4834151837308 442.3055352403239L1550.4834151837308 442.3055352403239Q1542.844914990897 442.3055352403239 1537.1929844452834 444.9076616796409Q1531.54105389967 447.5377679731442 1527.7637735845324 452.4622223099163Q1523.9864932693947 457.41465650087457 1522.1398228931052 464.60547902672926Q1520.2651726626295 471.796301552584 1520.2651726626295 480.8617743089144L1520.2651726626295 480.8617743089144Q1520.2651726626295 489.92724706524484 1522.1398228931052 497.09008973691334Q1523.9864932693947 504.2529324085818 1527.7637735845324 509.1214270369815Q1531.54105389967 514.0179015195674 1537.1929844452834 516.6200279588845Q1542.844914990897 519.2501342523876 1550.4834151837308 519.2501342523876ZM1696.1465360771144 466.56406881976363L1696.1465360771144 531.8410686361799L1688.1722776340457 531.8410686361799Q1685.5701511947289 531.8410686361799 1683.9473196519289 531.02965286478Q1682.3524679633153 530.2182370933801 1681.8488305879637 527.616110654063L1681.8488305879637 527.616110654063L1679.8342810865568 518.1309400849395Q1675.8051820837431 521.7683211291462 1671.9719420602332 524.6502461103253Q1668.1387020367229 527.5041912373182 1663.913744054606 529.4627810303525Q1659.6887860724892 531.4493506775732 1654.9042310066482 532.4566254282765Q1650.1196759408072 533.4639001789799 1644.27188641589 533.4639001789799L1644.27188641589 533.4639001789799Q1638.3121774742285 533.4639001789799 1633.1359044497806 531.7851089278076Q1627.9596314253326 530.1342975308214 1624.1263914018227 526.8046948826632Q1620.2931513783126 523.4750922345047 1618.02678318923 518.3827587726154Q1615.7604150001473 513.3184051649123 1615.7604150001473 506.3514214725472L1615.7604150001473 506.3514214725472Q1615.7604150001473 500.3077729683269 1619.0900176483055 494.7118021310859Q1622.419620296464 489.1438111480311 1629.806301801622 484.80693374916933Q1637.2209631609667 480.4700563503075 1649.1963407526623 477.7000507858732Q1661.1996981985444 474.9300452214389 1678.5192279398052 474.53832726283207L1678.5192279398052 474.53832726283207L1678.5192279398052 466.56406881976363Q1678.5192279398052 454.6726307906265 1673.426894477916 448.60100243222Q1668.3345610160266 442.5013942196273 1658.3737329257376 442.5013942196273L1658.3737329257376 442.5013942196273Q1651.8264470461654 442.5013942196273 1647.3496703763728 444.1522056166134Q1642.8449138523938 445.8309968677857 1639.5712709126078 447.87352622337863Q1636.2976279728216 449.9440354331578 1633.9473202211805 451.62282668433016Q1631.569032615353 453.2736380813163 1629.246704717898 453.2736380813163L1629.246704717898 453.2736380813163Q1627.455994049981 453.2736380813163 1626.084981194857 452.32232303898525Q1624.7139683397327 451.37100799665427 1623.9305324225193 449.9440354331578L1623.9305324225193 449.9440354331578L1620.6848693369193 444.2081653249858Q1629.1627651553395 436.0380479026139 1638.927734266325 432.0089488998004Q1648.6927033773104 427.9798498969869 1660.5841414064475 427.9798498969869L1660.5841414064475 427.9798498969869Q1669.1459767874262 427.9798498969869 1675.8051820837431 430.80581516979356Q1682.4364075258738 433.6317804426003 1686.969143904039 438.6681541961172Q1691.5018802822042 443.7045279496341 1693.8242081796593 450.8673706213026Q1696.1465360771144 458.0022334387849 1696.1465360771144 466.56406881976363L1696.1465360771144 466.56406881976363ZM1649.6160385654553 520.8729657951876L1649.6160385654553 520.8729657951876Q1654.344633922924 520.8729657951876 1658.2618135089929 519.8936708986705Q1662.2069729492478 518.9423558563394 1665.676474868337 517.1796250426086Q1669.1459767874262 515.4168942288777 1672.3077003104677 512.8987073521191Q1675.497403687695 510.3805204753607 1678.5192279398052 507.16283724394714L1678.5192279398052 507.16283724394714L1678.5192279398052 485.8981480624313Q1666.1241525353164 486.3178458752244 1657.4503977375925 487.88471770965185Q1648.8046227940554 489.42360968989317 1643.3485512277452 491.9417965666516Q1637.9204595156216 494.45998344341007 1635.4582323472355 497.9015055083133Q1632.9960051788494 501.3150477190303 1632.9960051788494 505.54000570114727L1632.9960051788494 505.54000570114727Q1632.9960051788494 509.56910470396076 1634.283078471415 512.5069893935124Q1635.5981316181665 515.4168942288777 1637.8085400988766 517.2915444593534Q1640.0469284337732 519.1382148356429 1643.0687526858833 520.0055903154152Q1646.0905769379935 520.8729657951876 1649.6160385654553 520.8729657951876ZM1741.2780408794633 531.8410686361799L1723.3429543461057 531.8410686361799L1723.3429543461057 429.7985404190902L1733.611560832443 429.7985404190902Q1736.5214656678081 429.7985404190902 1737.6406598352564 430.9177345865384Q1738.7598540027043 432.0089488998004 1739.1515719613112 434.7509746100485L1739.1515719613112 434.7509746100485L1740.3547056913185 450.64353178781295Q1745.5869384241387 439.98320734286887 1753.309378179531 433.99551854702094Q1761.0038380807378 427.9798498969869 1771.3843639838196 427.9798498969869L1771.3843639838196 427.9798498969869Q1775.6093219659365 427.9798498969869 1779.05084403084 428.95914479350404Q1782.464386241557 429.910459835835 1785.3742910769224 431.61723094119355L1785.3742910769224 431.61723094119355L1783.0799430336533 445.01958109638576Q1782.352466824812 447.5377679731442 1779.9461993647983 447.5377679731442L1779.9461993647983 447.5377679731442Q1778.547206655488 447.5377679731442 1775.6093219659365 446.5864529308132Q1772.6994171305714 445.60715803429605 1767.4671843977508 445.60715803429605L1767.4671843977508 445.60715803429605Q1758.0939332453722 445.60715803429605 1751.7984660534762 451.063229600606Q1745.5029988615802 456.4913213127298 1741.2780408794633 466.8718472158119L1741.2780408794633 466.8718472158119L1741.2780408794633 531.8410686361799ZM1887.025101335405 531.8410686361799L1876.3367970362747 531.8410686361799Q1872.5035570127648 531.8410686361799 1871.4962822620614 528.1197480294147L1871.4962822620614 528.1197480294147L1869.9014305734477 515.7246726249259Q1863.3541446938757 523.6709512138082 1854.932208583828 528.4555062796492Q1846.5382523279663 533.2400613454902 1835.6540890495326 533.2400613454902L1835.6540890495326 533.2400613454902Q1826.8963946892504 533.2400613454902 1819.733552017582 529.8824788431457Q1812.5707093459137 526.4969164866149 1807.5343355923965 519.9496306070428Q1802.4979618388797 513.4023447274708 1799.7839159828177 503.6373756164853Q1797.069870126756 493.8724065054998 1797.069870126756 481.16955270496265L1797.069870126756 481.16955270496265Q1797.069870126756 469.89367146792205 1800.0916943788661 460.1846620653089Q1803.1135186309762 450.44767280850954 1808.7934290307758 443.3128099910272Q1814.5013192847618 436.1499673193587 1822.643456852947 432.0649086081728Q1830.8135742753193 427.9798498969869 1841.1941001784012 427.9798498969869L1841.1941001784012 427.9798498969869Q1850.5673513307802 427.9798498969869 1857.1985767729107 431.16955327421425Q1863.8577820692276 434.33127679725544 1869.0900148020478 440.0671469054275L1869.0900148020478 440.0671469054275L1869.0900148020478 383.4639018867347L1887.025101335405 383.4639018867347L1887.025101335405 531.8410686361799ZM1841.5858181370081 518.746496877036L1841.5858181370081 518.746496877036Q1850.3435124972902 518.746496877036 1856.9467580852347 514.7173978742226Q1863.5500036731792 510.68829887140896 1869.0900148020478 503.32959722043705L1869.0900148020478 503.32959722043705L1869.0900148020478 453.97313443597136Q1864.1655604652756 447.3419089938408 1858.2618112319865 444.6558429919651Q1852.358061998697 441.9977568442756 1845.223199181215 441.9977568442756L1845.223199181215 441.9977568442756Q1830.9254936920638 441.9977568442756 1823.2590136450435 452.154443913868Q1815.5925335980237 462.3391108376467 1815.5925335980237 481.16955270496265L1815.5925335980237 481.16955270496265Q1815.5925335980237 491.15836064943784 1817.3272845575684 498.2372637585477Q1819.0340556629267 505.3441467218438 1822.3636583110851 509.93284280838145Q1825.6652811050576 514.5215388949191 1830.5057958792709 516.6200279588845Q1835.3463106534846 518.746496877036 1841.5858181370081 518.746496877036Z " fill="#ddc6b6" transform="matrix(0.4636928288590825,0,0,0.46369282885908236,0,87.41357635930022)"/></g></svg>